PathFileType	4	(X/Y/Z)	c:/Users/goper/Files/vsCode/490R/osim_files/A01/A01_PWS_02.trc
DataRate	CameraRate	NumFrames	NumMarkers	Units                	OrigDataRate	OrigDataStartFrame	OrigNumFrames
120.00	120.00	5	36	mm	120.0	895	1431
                Frame#	Time	Mobility_markerset:LPSIS			Mobility_markerset:LASIS			Mobility_markerset:LTH1			Mobility_markerset:LTH2			Mobility_markerset:LTH3			Mobility_markerset:LTH4			Mobility_markerset:LLFE			Mobility_markerset:LMFE			Mobility_markerset:LSH1			Mobility_markerset:LSH2			Mobility_markerset:LSH3			Mobility_markerset:LSH4			Mobility_markerset:LLMAL			Mobility_markerset:LMMAL			Mobility_markerset:LCAL			Mobility_markerset:LMTP5			Mobility_markerset:LTOE			Mobility_markerset:LMTP1			Mobility_markerset:RPSIS			Mobility_markerset:RASIS			Mobility_markerset:RTH1			Mobility_markerset:RTH2			Mobility_markerset:RTH3			Mobility_markerset:RTH4			Mobility_markerset:RLFE			Mobility_markerset:RMFE			Mobility_markerset:RSH1			Mobility_markerset:RSH2			Mobility_markerset:RSH3			Mobility_markerset:RSH4			Mobility_markerset:RLMAL			Mobility_markerset:RMMAL			Mobility_markerset:RCAL			Mobility_markerset:RMTP1			Mobility_markerset:RTOE			Mobility_markerset:RMTP5		
		X1	Y1	Z1	X2	Y2	Z2	X3	Y3	Z3	X4	Y4	Z4	X5	Y5	Z5	X6	Y6	Z6	X7	Y7	Z7	X8	Y8	Z8	X9	Y9	Z9	X10	Y10	Z10	X11	Y11	Z11	X12	Y12	Z12	X13	Y13	Z13	X14	Y14	Z14	X15	Y15	Z15	X16	Y16	Z16	X17	Y17	Z17	X18	Y18	Z18	X19	Y19	Z19	X20	Y20	Z20	X21	Y21	Z21	X22	Y22	Z22	X23	Y23	Z23	X24	Y24	Z24	X25	Y25	Z25	X26	Y26	Z26	X27	Y27	Z27	X28	Y28	Z28	X29	Y29	Z29	X30	Y30	Z30	X31	Y31	Z31	X32	Y32	Z32	X33	Y33	Z33	X34	Y34	Z34	X35	Y35	Z35	X36	Y36	Z36

895	7.45000	0.00000	0.00000	0.00000	-3155.59961	1013.17688	386.50357	-3165.48926	693.60004	444.33618	-3189.99463	654.34039	435.31586	-3218.62109	722.32782	442.79095	-3235.99414	681.52252	430.71393	-3265.63379	548.41663	395.44656	-3304.60791	572.90717	265.91782	-3294.03857	383.38074	374.10510	0.00000	0.00000	0.00000	-3352.59277	401.02289	385.27936	-3363.34668	357.25742	384.70688	-3420.76001	112.58192	357.38779	-3430.52051	115.40884	272.52271	-3367.46289	58.79494	298.62823	-3563.51758	113.99369	405.02182	-3591.25586	152.64397	344.56659	-3587.79370	137.31116	307.70432	-2919.74146	1042.64880	203.49109	-3150.25806	993.67633	124.66810	-2967.00415	679.84308	64.43398	-2970.55078	636.60425	72.60243	-3028.96216	676.21497	67.74005	-3024.31909	635.45593	73.34101	-2988.99902	492.24860	116.78011	0.00000	0.00000	0.00000	-2841.11499	328.20013	113.87943	-2830.70630	284.31415	115.39918	-2900.15552	307.23605	112.09097	-2881.90283	266.04868	113.83817	-2796.62891	110.24417	151.89716	-2827.14258	119.37624	235.44832	-2739.59595	87.10292	202.77597	-2942.39941	43.37943	223.73302	-2976.17749	54.66603	176.56506	-2914.17480	40.38190	111.80880
896	7.45833	0.00000	0.00000	0.00000	-3165.16992	1010.86102	387.04764	-3171.90576	690.40576	443.54630	-3196.86182	650.85211	434.37155	-3225.19995	719.21722	442.32788	-3242.80029	678.14600	430.44748	-3272.98438	546.15442	394.73218	-3312.88428	570.81207	265.50391	-3302.51294	381.85345	373.55527	0.00000	0.00000	0.00000	-3361.45947	399.53296	385.56351	-3372.99097	356.08145	385.26984	-3432.76880	111.94842	358.95880	-3443.57080	114.76590	274.26221	-3382.44067	56.76535	299.99271	-3575.49780	115.33022	408.03140	-3603.20532	153.96140	347.89090	-3600.82251	138.79622	311.69882	-2929.32324	1041.28979	204.92052	-3159.61768	991.68945	125.22147	-2973.63574	679.36023	64.98277	-2976.93188	636.06561	73.03290	-3035.57397	675.22998	68.08620	-3030.70776	634.54822	73.59239	-2994.34229	491.37772	116.87140	0.00000	0.00000	0.00000	-2844.57056	328.95209	114.03062	-2833.03394	285.30460	115.57342	-2903.21753	307.33078	112.07378	-2884.85034	266.49557	113.84418	-2797.45728	111.26511	151.47743	-2827.99170	120.24606	235.21761	-2740.05884	88.73440	202.55034	-2942.46973	43.54701	223.63480	-2976.27710	54.49911	176.41991	-2914.20386	40.35658	111.79176
897	7.46667	0.00000	0.00000	0.00000	-3175.21631	1008.88226	387.67404	-3179.16138	686.82935	442.95721	-3204.62427	647.86145	433.25955	-3232.27271	715.67126	442.46759	-3250.76440	675.50128	430.18600	-3281.00024	544.24066	394.34039	-3321.43604	568.74561	265.32230	-3311.89868	379.86444	373.63672	0.00000	0.00000	0.00000	-3370.05737	397.90506	385.90561	-3381.67334	354.47202	385.79196	-3442.43726	110.60271	360.27689	-3453.67114	113.22808	275.67844	-3392.55615	55.13523	301.11133	-3584.74243	114.54777	410.25125	-3612.98145	153.49609	350.36639	-3610.93481	138.04063	313.77026	-2938.84082	1039.90552	206.34203	-3169.58643	990.06653	126.12408	-2981.31494	678.64594	65.57439	-2983.50903	635.43927	73.46419	-3042.35034	674.21063	68.37720	-3037.19189	633.57532	73.82376	-3000.00049	490.48279	116.96741	0.00000	0.00000	0.00000	-2847.39575	328.88269	115.47266	-2836.49683	286.18097	115.39771	-2906.65918	307.52841	111.99100	-2887.99438	267.03900	113.78842	-2798.41602	112.53642	151.15752	-2828.90381	121.34448	234.87764	-2740.57227	90.51840	202.16884	-2942.46436	43.67381	223.52408	-2976.66699	54.54837	176.36592	-2913.64771	39.62062	111.86505
898	7.47500	0.00000	0.00000	0.00000	-3185.13843	1006.85193	388.38327	-3186.56104	683.85095	441.99841	-3212.11792	645.02197	432.06747	-3239.71948	712.68872	442.74844	-3258.80347	673.06561	430.23495	-3289.64600	542.47473	394.39224	-3330.48730	566.73022	265.42917	-3319.31152	378.04193	373.90982	0.00000	0.00000	0.00000	-3378.11108	395.82791	386.28601	-3389.62817	352.36691	386.24295	-3449.43726	108.27511	361.17261	-3460.96460	110.68923	276.62366	-3399.76978	53.66908	301.44827	-3591.65845	111.62347	411.45673	-3620.30566	150.40665	351.69061	-3618.16870	134.91707	315.03854	-2948.39551	1038.61633	207.73386	-3179.85229	988.50531	127.10515	-2988.31348	678.07562	66.13304	-2990.46411	634.86841	73.96454	-3049.38477	673.22778	68.76551	-3044.02588	632.67688	74.11416	-3005.89429	489.55945	117.05704	0.00000	0.00000	0.00000	-2852.75146	330.61823	114.00745	-2839.26611	287.51489	115.14154	-2910.21973	307.66028	111.82140	-2891.30615	267.54102	113.58312	-2799.00317	114.00501	150.56343	-2829.83447	122.57105	234.43089	-2741.15430	92.53609	201.76335	-2942.51807	43.86409	223.40811	-2976.74805	54.33218	176.21449	-2914.29102	40.27050	111.67249
899	7.48333	0.00000	0.00000	0.00000	-3194.75659	1004.70795	389.19235	-3193.50000	681.13702	441.00433	-3220.19116	642.46387	431.06555	-3247.85083	710.07098	443.15573	-3267.41284	670.73846	430.58939	-3298.53809	540.75079	394.83899	-3339.70923	564.67133	265.82849	-3326.52930	375.45450	374.59918	0.00000	0.00000	0.00000	-3385.56006	393.22400	386.72769	-3396.58911	349.67450	386.63007	-3454.01294	105.83188	360.99710	-3466.26416	107.84300	276.21854	-3403.23022	53.94732	301.67673	-3596.24463	106.66228	411.86127	-3625.45337	144.78542	351.66287	-3623.00977	129.00713	315.20529	-2958.19653	1037.18469	209.22099	-3190.19409	987.01782	128.15802	-2995.73389	677.54810	66.72027	-2998.20898	634.06555	74.30473	-3056.89258	672.36884	69.13296	-3051.20752	631.73779	74.36855	-3012.09033	488.60068	117.12794	0.00000	0.00000	0.00000	-2855.35571	330.88004	115.13756	-2842.79053	288.77979	114.89812	-2913.96313	307.90515	111.65128	-2894.06299	268.38239	113.31099	-2800.05737	115.47700	149.91754	-2830.87939	123.87360	233.90755	-2741.81152	94.76372	201.21472	-2942.44360	44.09367	223.13336	-2976.88062	54.12664	176.05174	-2914.84424	40.31971	111.75813
